<svg width="100" height="100" viewBox="0 0 100 100" fill="none" xmlns="http://www.w3.org/2000/svg" xmlns:xlink="http://www.w3.org/1999/xlink">
<path d="M50,8.333L50,6.333L50,8.333ZM50,6.333C46.154,6.333 42.466,7.861 39.747,10.58L42.575,13.409C44.545,11.44 47.215,10.333 50,10.333L50,6.333ZM39.747,10.58C37.028,13.3 35.5,16.988 35.5,20.833L39.5,20.833C39.5,18.049 40.606,15.378 42.575,13.409L39.747,10.58ZM35.5,20.833L35.5,50L39.5,50L39.5,20.833L35.5,20.833ZM35.5,50C35.5,53.846 37.028,57.534 39.747,60.253L42.575,57.425C40.606,55.456 39.5,52.785 39.5,50L35.5,50ZM39.747,60.253C42.466,62.972 46.154,64.5 50,64.5L50,60.5C47.215,60.5 44.545,59.394 42.575,57.425L39.747,60.253ZM50,64.5C53.846,64.5 57.534,62.972 60.253,60.253L57.425,57.425C55.456,59.394 52.785,60.5 50,60.5L50,64.5ZM60.253,60.253C62.972,57.534 64.5,53.846 64.5,50L60.5,50C60.5,52.785 59.394,55.456 57.425,57.425L60.253,60.253ZM64.5,50L64.5,20.833L60.5,20.833L60.5,50L64.5,50ZM64.5,20.833C64.5,16.988 62.972,13.3 60.253,10.58L57.425,13.409C59.394,15.378 60.5,18.049 60.5,20.833L64.5,20.833ZM60.253,10.58C57.534,7.861 53.846,6.333 50,6.333L50,10.333C52.785,10.333 55.456,11.44 57.425,13.409L60.253,10.58Z" fill="#FFFFFF"/>
<path d="M81.167,41.667C81.167,40.562 80.271,39.667 79.167,39.667C78.062,39.667 77.167,40.562 77.167,41.667L81.167,41.667ZM79.167,50L81.167,50L81.167,50L79.167,50ZM50,79.167L50,77.167L50,79.167ZM20.833,50L18.833,50L18.833,50L20.833,50ZM22.833,41.667C22.833,40.562 21.938,39.667 20.833,39.667C19.729,39.667 18.833,40.562 18.833,41.667L22.833,41.667ZM77.167,41.667L77.167,50L81.167,50L81.167,41.667L77.167,41.667ZM77.167,50C77.167,57.205 74.305,64.115 69.21,69.21L72.038,72.038C77.883,66.193 81.167,58.266 81.167,50L77.167,50ZM69.21,69.21C64.115,74.304 57.205,77.167 50,77.167L50,81.167C58.266,81.167 66.193,77.883 72.038,72.038L69.21,69.21ZM50,77.167C42.795,77.167 35.885,74.304 30.79,69.21L27.962,72.038C33.807,77.883 41.734,81.167 50,81.167L50,77.167ZM30.79,69.21C25.696,64.115 22.833,57.205 22.833,50L18.833,50C18.833,58.266 22.117,66.193 27.962,72.038L30.79,69.21ZM22.833,50L22.833,41.667L18.833,41.667L18.833,50L22.833,50Z" fill="#FFFFFF"/>
<line x1="48" y1="79.167" x2="48" y2="91.667" stroke="#FFFFFF" stroke-width="2" stroke-miterlimit="3.999327" stroke-linecap="round" stroke-linejoin="round"/>
</svg>
